<svg xmlns="http://www.w3.org/2000/svg" xmlns:se="http://svg-edit.googlecode.com" xmlns:xlink="http://www.w3.org/1999/xlink" xmlns:dc="http://purl.org/dc/elements/1.1/" xmlns:cc="http://creativecommons.org/ns#" xmlns:rdf="http://www.w3.org/1999/02/22-rdf-syntax-ns#" xmlns:inkscape="http://www.inkscape.org/namespaces/inkscape" width="200" height="200" style=""><rect id="backgroundrect" width="100%" height="100%" x="0" y="0" fill="none" stroke="none" class="" style=""/>
                                    <title>my vector image</title>
                                    <!-- Created with Vector Paint - http://www.vectorpaint.yaks.com/ https://chrome.google.com/webstore/detail/hnbpdiengicdefcjecjbnjnoifekhgdo -->
                                <g style="" class="currentLayer"><title>Layer 1</title><g class=""><rect fill="#919191" stroke="none" stroke-width="3" stroke-dashoffset="" fill-rule="nonzero" id="svg_1" x="76.86956195456129" y="187.44881991028834" width="49.90010957728417" height="10.105293634159525" style="color: rgb(7, 187, 58);" class="" fill-opacity="1"/><path fill="#6d6d6d" fill-opacity="1" stroke="none" stroke-width="1" stroke-dasharray="none" stroke-linejoin="miter" stroke-linecap="butt" stroke-dashoffset="" fill-rule="nonzero" opacity="1" marker-start="" marker-mid="" marker-end="" id="svg_5" d="M91.67674415351796,187.4488150792332 C77.03938281441398,169.99421276886977 72.04798337157344,152.53961045850633 72.56856215516926,132.78835974042485 C73.08914093876498,113.03710902234333 90.32938241590236,54.54887418413189 102.42511547501435,65.2666126866348 C114.52084853412633,75.98435118913767 128.76012102577153,115.1806484548766 129.06633897614117,134.16635429703393 C129.37255692651084,153.1520601391912 119.57348605506249,171.21909835029405 112.53040429683233,187.4488150792332 L91.67674415351796,187.4488150792332 z" style="color: rgb(7, 187, 58);" class=""/></g><path fill="#3abb17" stroke="none" stroke-width="3" stroke-dashoffset="" fill-rule="nonzero" marker-start="" marker-mid="" marker-end="" id="svg_4" d="M153.08194640056308,13.754583157139622 L153.02323113982004,89.71393354745798 C153.02971664544253,81.32369925738689 129.28251401950902,80.01567759070609 99.98238987512006,79.99302910279643 C70.68225195078963,79.97038060423509 46.92453954410764,81.24168179531436 46.918054038485145,89.63191608538546 L46.976769299228195,13.672565695067089 L46.976769299228195,13.672565695067089 C46.983254815502335,5.282317625054578 70.74096487860307,1.714367338319525 100.0411028029335,1.737015836880849 C129.34124072726394,1.7596643354421737 153.08843191683724,5.364335087127114 153.08194640056308,13.754583157139622 z" style="color: rgb(7, 187, 58);" class="" fill-opacity="1"/></g></svg>