<svg xmlns="http://www.w3.org/2000/svg" xmlns:se="http://svg-edit.googlecode.com" xmlns:xlink="http://www.w3.org/1999/xlink" xmlns:dc="http://purl.org/dc/elements/1.1/" xmlns:cc="http://creativecommons.org/ns#" xmlns:rdf="http://www.w3.org/1999/02/22-rdf-syntax-ns#" xmlns:inkscape="http://www.inkscape.org/namespaces/inkscape" width="200" height="200" style="">
                                    <title>my vector image</title>
                                    <!-- Created with Vector Paint - http://www.vectorpaint.yaks.com/ https://chrome.google.com/webstore/detail/hnbpdiengicdefcjecjbnjnoifekhgdo -->
                                    <rect id="backgroundrect" width="100%" height="100%" x="0" y="0" fill="#FFFFFF" stroke="none" style="" class="" opacity="0"/>
                                <g style="" class="currentLayer"><title>Layer 1</title><g class="" id="svg_2"><path fill="#b6b6b6" fill-opacity="1" stroke="#6d6d6d" stroke-opacity="1" stroke-width="1" stroke-dasharray="none" stroke-linejoin="round" stroke-linecap="butt" stroke-dashoffset="" fill-rule="nonzero" opacity="1" marker-start="" marker-mid="" marker-end="" d="M2.7537198764673354,99.95358717871152 C2.7537198764673354,79.86893371083355 46.169400973039494,63.60035745945491 99.76902379462175,63.60035745945491 C153.3686267807826,63.60035745945491 196.78431779506545,79.86893371083355 196.78431779506545,99.95358717871152 C196.78431779506545,120.0382604820108 153.3686267807826,136.30681689796805 99.76902379462175,136.30681689796805 C46.169400973039494,136.30681689796805 2.7537198764673354,120.0382604820108 2.7537198764673354,99.95358717871152 z" id="svg_4" class=""/><path fill="#efefef" fill-opacity="1" stroke="#919191" stroke-opacity="1" stroke-width="1" stroke-dasharray="none" stroke-linejoin="round" stroke-linecap="butt" stroke-dashoffset="" fill-rule="nonzero" opacity="1" marker-start="" marker-mid="" marker-end="" d="M2.8465595663207264,104.5976940614708 C2.8465595663207264,87.02755712879745 46.26919297809291,72.7957414528309 99.8773847017191,72.7957414528309 C153.48553675450248,72.7957414528309 196.90817016627466,87.02755712879745 196.90817016627466,104.5976940614708 C196.90817016627466,122.16783099414415 153.48553675450248,136.3996466701107 99.8773847017191,136.3996466701107 C46.26919297809291,136.3996466701107 2.8465595663207264,122.16783099414415 2.8465595663207264,104.5976940614708 z" id="svg_1" class=""/><path fill="#dadada" fill-opacity="1" stroke="#919191" stroke-width="1" stroke-dasharray="none" stroke-linejoin="round" stroke-linecap="butt" stroke-dashoffset="" fill-rule="nonzero" opacity="1" marker-start="" marker-mid="" marker-end="" d="M15.195934245351753,105.43334052954765 C15.195934245351753,91.30028541672182 53.279011064728905,79.85250998191596 100.29515834720402,79.85250998191596 C147.3113254651005,79.85250998191596 185.39442211989905,91.30028541672182 185.39442211989905,105.43334052954765 C185.39442211989905,119.56643531321632 147.3113254651005,131.01421074802207 100.29515834720402,131.01421074802207 C53.279011064728905,131.01421074802207 15.195934245351753,119.56643531321632 15.195934245351753,105.43334052954765 z" class="" id="svg_13" stroke-opacity="1"/><path fill="#654321" fill-opacity="1" stroke="#b6b6b6" stroke-width="2" stroke-dasharray="none" stroke-linejoin="round" stroke-linecap="butt" stroke-dashoffset="" fill-rule="nonzero" opacity="1" marker-start="" marker-mid="" marker-end="" d="M15.195934245351753,108.77606524980479 C15.195934245351753,95.46379987442869 53.27902098243961,84.68084825862002 100.2951781826254,84.68084825862002 C147.31136513594328,84.68084825862002 185.39446179074184,95.46379987442869 185.39446179074184,108.77606524980479 C185.39446179074184,122.08835046060237 147.31136513594328,132.87128224098956 100.2951781826254,132.87128224098956 C53.27902098243961,132.87128224098956 15.195934245351753,122.08835046060237 15.195934245351753,108.77606524980479 z" id="svg_10" class="" stroke-opacity="1"/></g></g></svg>