<svg xmlns="http://www.w3.org/2000/svg" viewBox="0 0 200 200"><g class="currentLayer"><g fill="var(--button-card-light-color)"><path class="transition" stroke="#6d6d6d" d="M11.773 112.457v31.886l4.96 11.337 2.834-13.463-2.126-41.806-5.668 12.046zM65.978 111.926v31.885l4.96 11.337 2.835-13.462-2.126-41.806-5.669 12.046zM83.35 107.245v42.003l4.96 14.935 2.834-17.735-2.125-55.071-5.669 15.868zM119.773 116.218v26.367l4.102 9.375 2.344-11.133-1.758-34.57-4.688 9.96zM134.767 108.56v39.857l5.135 14.172 2.934-16.829-2.2-52.257-5.869 15.057zM48.553 117.812v26.367l4.102 9.375 2.343-11.133-1.757-34.57-4.688 9.961zM152.19 116.75v26.366l4.102 9.375 2.344-11.132-1.758-34.57-4.687 9.96zM185.916 113.52v31.886l4.96 11.337 2.834-13.463-2.125-41.806-5.669 12.046zM36.89 149.126v-39.858l-5.135-14.171-2.934 16.829 2.2 52.257 5.869-15.057zM174.722 149.657V109.8l-4.796-14.172-2.741 16.829 2.055 52.257 5.482-15.057z" color="#3abb17"/></g><g><path fill="#917f08" stroke="#6d6d6d" color="#3abb17" d="M2.714 124.432h194.929v7.44H2.714z"/><path fill="#917f08" stroke="#6d6d6d" color="#917f08" d="M103 47.286h4v89h-4z"/><path fill="#917f08" stroke="#6d6d6d" color="#917f08" d="M84.714 35.286h39v13h-39z"/></g></g></svg>
