<svg xmlns="http://www.w3.org/2000/svg" viewBox="0 0 200 200"><g class="currentLayer"><g>
<path fill="#919191" color="#07bb3a" d="M76.87 187.449h49.9v10.105h-49.9z"/>
<path fill="#6d6d6d" d="M91.677 187.449c-14.638-17.455-19.629-34.91-19.108-54.66.52-19.752 17.76-78.24 29.856-67.522 12.096 10.717 26.335 49.914 26.641 68.9.307 18.985-9.493 37.052-16.536 53.282H91.677z" color="#07bb3a"/></g>
<path class="transition" fill="var(--button-card-light-color)" d="M153.082 13.755l-.059 75.959c.007-8.39-23.74-9.698-53.04-9.721-29.3-.023-53.058 1.249-53.065 9.639l.059-75.96c.006-8.39 23.764-11.958 53.064-11.935 29.3.023 53.047 3.627 53.04 12.018z" color="#07bb3a"/></g></svg>
