<svg viewBox="0 0 50 50" xmlns="http://www.w3.org/2000/svg"><g stroke="#6c6c6c">
<path d="M16.495 13.016c-.103-2.23-.008-5.552.13-5.664 2.14-4.858 12.325-5.094 15.592-.06.2.309.25 5.487.23 5.825" fill="#eee" stroke-width=".25034"/>
<path d="M13.204 20.997c.003-.232-.375-4.699.53-5.763 4.262-5.006 15.402-5.525 20.692-.586 1.494 1.394 1 4.407 1.07 6.018" fill="#eee" stroke-width=".25034"/>
<path d="M1.92 33.923c2.88-3.767 7.118-10.428 11.53-13.215 3.303-2.086 5.035-2.747 11.125-2.588 4.95.129 6.083.06 10.683 2.487 5.734 3.025 8.59 8.378 12.561 13.372" fill="#eee" stroke-width=".25034"/>
<path d="M16.531 11.175c2.507-1.538 4.647-1.925 8.021-1.977 3.453-.054 5.36 1.023 7.806 2.159" fill="none" stroke-width=".25034"/>
<path d="M16.531 9.423c2.507-1.539 4.647-1.925 8.021-1.978 3.453-.053 5.36 1.023 7.806 2.16" fill="none" stroke-width=".25034"/>
<path d="M16.531 7.67c2.507-1.538 4.647-1.924 8.021-1.977 3.453-.054 5.36 1.023 7.806 2.159" fill="none" stroke-width=".25034"/></g><g class="currentLayer" transform="translate(-.02 11.666) scale(.25034)"><g>
<path fill="#b6b6b6" stroke="#6d6d6d" stroke-linejoin="round" d="M2.754 99.954c0-20.085 43.415-36.354 97.015-36.354s97.015 16.269 97.015 36.354c0 20.084-43.415 36.353-97.015 36.353S2.754 120.038 2.754 99.954z"/>
<path fill="#efefef" stroke="#919191" stroke-linejoin="round" d="M2.847 104.598c0-17.57 43.422-31.802 97.03-31.802 53.609 0 97.031 14.232 97.031 31.802S153.486 136.4 99.878 136.4c-53.609 0-97.031-14.232-97.031-31.802z"/>
<path fill="#dadada" stroke="#919191" stroke-linejoin="round" d="M15.196 105.433c0-14.133 38.083-25.58 85.1-25.58 47.015 0 85.098 11.447 85.098 25.58s-38.083 25.581-85.099 25.581c-47.016 0-85.1-11.448-85.1-25.58z"/>
<path class="transition" fill="var(--button-card-light-color)" stroke="#b6b6b6" stroke-width="2" stroke-linejoin="round" d="M15.196 108.776c0-13.312 38.083-24.095 85.1-24.095 47.015 0 85.098 10.783 85.098 24.095s-38.083 24.095-85.099 24.095c-47.016 0-85.1-10.783-85.1-24.095z"/></g></g></svg>
