<svg xmlns="http://www.w3.org/2000/svg" viewBox="0 0 200 200"><g class="currentLayer"><g><path fill="#b6b6b6" stroke="#6d6d6d" stroke-linejoin="round" d="M2.754 99.954c0-20.085 43.415-36.354 97.015-36.354s97.015 16.269 97.015 36.354c0 20.084-43.415 36.353-97.015 36.353S2.754 120.038 2.754 99.954z"/><path fill="#efefef" stroke="#919191" stroke-linejoin="round" d="M2.847 104.598c0-17.57 43.422-31.802 97.03-31.802 53.609 0 97.031 14.232 97.031 31.802S153.486 136.4 99.878 136.4c-53.609 0-97.031-14.232-97.031-31.802z"/><path fill="#dadada" stroke="#919191" stroke-linejoin="round" d="M15.196 105.433c0-14.133 38.083-25.58 85.1-25.58 47.015 0 85.098 11.447 85.098 25.58s-38.083 25.581-85.099 25.581c-47.016 0-85.1-11.448-85.1-25.58z"/><path class="transition" fill="var(--button-card-light-color)" stroke="#b6b6b6" stroke-width="2" stroke-linejoin="round" d="M15.196 108.776c0-13.312 38.083-24.095 85.1-24.095 47.015 0 85.098 10.783 85.098 24.095s-38.083 24.095-85.099 24.095c-47.016 0-85.1-10.783-85.1-24.095z"/></g></g></svg>
